# xmcd CD database file
#
# Track frame offsets:
#	150
#	16870
#	33342
#	45600
#	63268
#	80336
#	98084
#	115738
#	124082
#	136141
#	152814
#	172015
#	189438
#	205326
#
# Disc length: 2963 seconds
#
# Revision: 0
# Processed by: cddbd v1.5.2PL0 Copyright (c) Steve Scherf et al.
# Submitted via: CDex 1.51
#
DISCID=b00b910e
DTITLE=Adriano Grineberg - Impressions in Blue
DYEAR=2004
DGENRE=Blues
TTITLE0=Blues and Friends
TTITLE1=Waltz in Blue
TTITLE2=Reflections
TTITLE3=The Spectrum
TTITLE4=Impressions in Blue
TTITLE5=Blue Bird
TTITLE6=Color Wheel
TTITLE7=The Temple
TTITLE8=We All Are One
TTITLE9=Red Yellow and Blue
TTITLE10=Indigo
TTITLE11=Chroma
TTITLE12=Sunset in Blues
TTITLE13=Moon Eyes
EXTD=YEAR: 2004
EXTT0=
EXTT1=
EXTT2=
EXTT3=
EXTT4=
EXTT5=
EXTT6=
EXTT7=
EXTT8=
EXTT9=
EXTT10=
EXTT11=
EXTT12=
EXTT13=
PLAYORDER=
